<svg xmlns="http://www.w3.org/2000/svg" width="133.422" height="35.616" viewBox="0 0 133.422 35.616">
  <g id="idoom_white" transform="translate(-1641.114 324.391)">
    <path id="Path_109" data-name="Path 109" d="M1861.088-269.836c-2.245-3.757-5.9-4.945-9.912-5.143-4.239-.21-7.827,1.665-11.032,4.271-.879.714-1.436.764-2.272-.052a13.426,13.426,0,0,0-11.811-4.066c-6.292.879-11.412,5.438-12.251,11.744-.487,3.658.2,6.9,2.979,9.522a11.755,11.755,0,0,0,6.335,2.835,12.477,12.477,0,0,0,7.762-1,46.228,46.228,0,0,0,5.325-3.272c.705-.473,1.134-.6,1.819.068a13.888,13.888,0,0,0,13.08,4.043c5.884-1.149,11.593-6.443,11.289-13.524A8.87,8.87,0,0,0,1861.088-269.836Zm-29.034,7.69c-1.343,1.251-2.725,2.6-4.62,2.815a8.522,8.522,0,0,1-3.66-.478,2.4,2.4,0,0,1-1.479-2.653,3.554,3.554,0,0,1,1.9-3.1,15.32,15.32,0,0,1,2.605-.845c2.75.11,4.187,1.526,5.47,3.124A1.213,1.213,0,0,1,1832.054-262.147Zm20.88,1.418c-1.23,1.463-4.827,2.278-6.583.823a31.156,31.156,0,0,1-2.472-2.281,1,1,0,0,1-.1-.942c1.535-1.37,3.047-2.806,5.186-3.2.257-.047.523-.05,1.019-.095a13.146,13.146,0,0,1,2.071.487C1854.055-265.151,1854.444-262.523,1852.935-260.729Z" transform="translate(-133.665 -38.264)" fill="#fff"/>
    <path id="Path_110" data-name="Path 110" d="M2078.961-261.859c-.34,2.664-.773,5.321-.994,7.994-.23,2.786-.142,2.792-2.9,2.792h-.676c-.016.079-.032.158-.047.237a20.032,20.032,0,0,1-4.422-.924c-2.249-1.014-2.946-2.939-2.547-5.616.246-1.659.448-3.324.629-4.992a2.715,2.715,0,0,0-1.591-2.6,2.757,2.757,0,0,0-3.067,1.354,9.03,9.03,0,0,0-.71,2.574c-.413,3.029-.771,6.067-1.1,9.109-.074.685-.358.9-1.005.868-1.794-.086-3.592-.083-5.381-.221a4.758,4.758,0,0,1-3.962-5.346,49.138,49.138,0,0,0,.611-5.111c.135-1.938-.712-3.049-2.3-3.266a3.127,3.127,0,0,0-3.574,2.524c-.322,1.686-.448,3.408-.654,5.114s-.424,3.408-.591,5.114a1.146,1.146,0,0,1-1.327,1.179c-1.794-.056-3.594-.07-5.38-.223s-3.764-2.035-3.705-3.813c.151-4.625.187-9.332,3.022-13.348a14.211,14.211,0,0,1,9.88-6.2,12.027,12.027,0,0,1,9.33,2.529.954.954,0,0,0,1.377-.016,12.619,12.619,0,0,1,8.054-2.682c4.528.142,8.7,1.4,11.449,5.476A10.51,10.51,0,0,1,2078.961-261.859Z" transform="translate(-304.541 -38.383)" fill="#fff"/>
    <path id="Path_111" data-name="Path 111" d="M1724.636-323.5a22.754,22.754,0,0,0-5.285-.615c-2.062-.1-2.067-.023-2.475,1.952-.068.327-.156.651-.2.98-.367,2.547-.771,5.091-1.066,7.644-.1.881-.557.847-1.21.892a24.749,24.749,0,0,0-4.87.523,12.2,12.2,0,0,0-8.8,9.835,10.58,10.58,0,0,0,4.226,10.707,10.239,10.239,0,0,0,7.64,2.136,17.538,17.538,0,0,1,3.3-.343c1.546.1,3.076.471,4.613.726.011-.068.022-.135.034-.2.638,0,1.278-.025,1.913,0,1.012.047,1.339-.448,1.433-1.415.343-3.486.742-6.971,1.17-10.45.412-3.369.892-6.732,1.332-10.1.309-2.371.518-4.757.924-7.11C1727.7-320.558,1726.757-322.879,1724.636-323.5Zm-12.44,26.057a3.552,3.552,0,0,1-3.6-3.389,4.405,4.405,0,0,1,4.052-3.953,3.593,3.593,0,0,1,3.376,3.626A3.758,3.758,0,0,1,1712.2-297.442Z" transform="translate(-46.05 -0.194)" fill="#fff"/>
    <path id="Path_112" data-name="Path 112" d="M1653.4-268.045c-.309,2.853-.689,5.7-1.043,8.544-.3,2.438-.624,4.872-.9,7.313-.09.82-.53,1.089-1.271,1.079-.676-.009-1.352,0-2.026,0-.016.081-.031.16-.047.241a26.733,26.733,0,0,1-4.545-.928,3.655,3.655,0,0,1-2.434-3.91c.277-3.229.665-6.452,1.021-9.675.162-1.481.385-2.957.527-4.44a6.306,6.306,0,0,1,4.158-4.755,5.164,5.164,0,0,1,5.641,1.35C1653.941-271.7,1653.59-269.846,1653.4-268.045Z" transform="translate(0 -38.347)" fill="#fff"/>
    <path id="Path_113" data-name="Path 113" d="M1663.18-318.175a6.579,6.579,0,0,1-6.369,3.811,4.918,4.918,0,0,1-4.266-5.093c.221-1.359.39-2.729.7-4.068a1.307,1.307,0,0,1,.949-.771,39.36,39.36,0,0,1,5.282-.007C1663.209-323.964,1664.516-321.424,1663.18-318.175Z" transform="translate(-8.839)" fill="#fff"/>
  </g>
</svg>
