<svg xmlns="http://www.w3.org/2000/svg" width="213.377" height="56.96" viewBox="0 0 213.377 56.96">
  <g id="idoom" transform="translate(-1641.114 324.391)">
    <path id="Path_109" data-name="Path 109" d="M1889.506-266.745c-3.59-6.008-9.436-7.908-15.851-8.225-6.78-.335-12.517,2.664-17.643,6.83-1.406,1.143-2.3,1.222-3.633-.083-5.251-5.114-11.36-7.554-18.89-6.5-10.063,1.406-18.252,8.7-19.593,18.782-.779,5.85.321,11.04,4.765,15.228,2.855,2.689,6.365,3.885,10.131,4.534a19.955,19.955,0,0,0,12.413-1.6,73.932,73.932,0,0,0,8.517-5.233c1.128-.757,1.813-.955,2.909.108,5.86,5.669,12.593,8.088,20.919,6.466,9.411-1.838,18.54-10.3,18.053-21.629A14.185,14.185,0,0,0,1889.506-266.745Zm-46.433,12.3c-2.148,2-4.357,4.163-7.389,4.5a13.631,13.631,0,0,1-5.853-.764,3.832,3.832,0,0,1-2.365-4.242,5.684,5.684,0,0,1,3.042-4.963,24.506,24.506,0,0,1,4.167-1.352c4.4.177,6.7,2.44,8.747,5A1.94,1.94,0,0,1,1843.073-254.447Zm33.393,2.267c-1.968,2.339-7.72,3.644-10.528,1.316a49.83,49.83,0,0,1-3.954-3.647,1.6,1.6,0,0,1-.159-1.507c2.454-2.191,4.873-4.487,8.293-5.114.411-.076.836-.079,1.629-.151a21.022,21.022,0,0,1,3.312.779C1878.258-259.251,1878.881-255.049,1876.466-252.18Z" transform="translate(-110.361 -31.593)" fill="#53a0ed"/>
    <path id="Path_110" data-name="Path 110" d="M2105.752-254.08c-.545,4.26-1.237,8.51-1.59,12.784-.368,4.455-.227,4.466-4.642,4.466h-1.081l-.075.378c-2.372-.461-4.931-.508-7.072-1.478-3.6-1.622-4.711-4.7-4.073-8.982.393-2.653.717-5.316,1.005-7.983a4.341,4.341,0,0,0-2.544-4.163,4.41,4.41,0,0,0-4.905,2.166,14.452,14.452,0,0,0-1.135,4.116c-.66,4.844-1.233,9.7-1.766,14.568-.119,1.1-.573,1.438-1.608,1.388-2.869-.137-5.745-.133-8.607-.353-3.9-.3-7.007-4.7-6.336-8.549a78.721,78.721,0,0,0,.977-8.174c.216-3.1-1.139-4.876-3.683-5.223a5,5,0,0,0-5.716,4.037c-.515,2.7-.717,5.45-1.045,8.178s-.677,5.45-.944,8.178a1.833,1.833,0,0,1-2.123,1.885c-2.869-.09-5.748-.112-8.6-.357s-6.019-3.255-5.925-6.1c.242-7.4.3-14.925,4.833-21.348a22.727,22.727,0,0,1,15.8-9.919,19.232,19.232,0,0,1,14.921,4.044,1.526,1.526,0,0,0,2.2-.025,20.182,20.182,0,0,1,12.881-4.289c7.241.227,13.916,2.245,18.31,8.758A16.81,16.81,0,0,1,2105.752-254.08Z" transform="translate(-251.445 -31.691)" fill="#53a0ed"/>
    <path id="Path_111" data-name="Path 111" d="M1739.063-323.115a36.385,36.385,0,0,0-8.452-.984c-3.3-.155-3.305-.036-3.957,3.121-.108.523-.249,1.042-.324,1.568-.587,4.073-1.233,8.142-1.7,12.225-.162,1.409-.89,1.355-1.935,1.427a39.581,39.581,0,0,0-7.789.836,19.512,19.512,0,0,0-14.067,15.729c-1.085,6.87,1.06,12.842,6.758,17.124a16.374,16.374,0,0,0,12.218,3.417,28.045,28.045,0,0,1,5.273-.548c2.473.166,4.92.753,7.378,1.161.018-.108.036-.216.054-.321,1.02,0,2.044-.04,3.06.007,1.618.076,2.141-.717,2.292-2.263.548-5.576,1.186-11.148,1.871-16.713.66-5.388,1.427-10.766,2.13-16.15.494-3.792.829-7.608,1.478-11.371C1743.958-318.411,1742.455-322.124,1739.063-323.115Zm-19.9,41.672a5.681,5.681,0,0,1-5.763-5.421c0-3.067,3.4-6.379,6.48-6.322a5.747,5.747,0,0,1,5.4,5.8A6.009,6.009,0,0,1,1719.168-281.443Z" transform="translate(-38.022 -0.16)" fill="#53a0ed"/>
    <path id="Path_112" data-name="Path 112" d="M1660.756-263.945c-.494,4.563-1.1,9.108-1.669,13.664-.479,3.9-1,7.792-1.435,11.7-.144,1.312-.847,1.741-2.033,1.726-1.081-.014-2.162,0-3.24,0-.025.13-.05.256-.076.386-2.433-.465-4.992-.613-7.27-1.485a5.845,5.845,0,0,1-3.893-6.253c.443-5.165,1.063-10.319,1.633-15.473.259-2.368.616-4.729.843-7.1.285-3.013,3.32-6.6,6.65-7.6,3.4-1.027,6.466-.519,9.021,2.159C1661.628-269.784,1661.066-266.824,1660.756-263.945Z" transform="translate(0 -31.662)" fill="#53a0ed"/>
    <path id="Path_113" data-name="Path 113" d="M1669.565-314.449a10.521,10.521,0,0,1-10.186,6.095c-3.99-.519-7.208-4.275-6.823-8.146.353-2.173.624-4.365,1.117-6.506a2.091,2.091,0,0,1,1.517-1.233,62.945,62.945,0,0,1,8.448-.011C1669.611-323.708,1671.7-319.647,1669.565-314.449Z" transform="translate(-7.298)" fill="#53a0ed"/>
  </g>
</svg>
