<svg xmlns="http://www.w3.org/2000/svg" width="206.02" height="94.294" viewBox="0 0 206.02 94.294">
  <g id="logo_blue" transform="translate(-1046.649 -866.749)">
    <path id="Path_78" data-name="Path 78" d="M1194.627,991.807a55.185,55.185,0,0,0-14.46,5.493,93.568,93.568,0,0,0-7.865,5.338c-2.27,1.627-4.422,3.42-6.7,5.04a14.268,14.268,0,0,1-7.15,2.52c-4.179.376-7.933-1.1-11.487-2.94-8.151-4.208-15.53-9.605-22.7-15.3-2.574-2.045-5.133-4.107-7.625-6.3.547.264,1.09.531,1.637.79,2.915,1.382,5.82,2.786,8.752,4.126a12.742,12.742,0,0,0,2.141.572l.266-.271a14.879,14.879,0,0,0-.657-1.742,12.852,12.852,0,0,0-1.241-2,4.345,4.345,0,0,1,1.178-6.3,20.21,20.21,0,0,1,7.316-2.681c5.8-1.206,11.634-2.22,17.445-3.366a47.51,47.51,0,0,0,14.4-4.8,14.047,14.047,0,0,0,6.625-7.359.838.838,0,0,1,.135-.222,1.963,1.963,0,0,1,.286-.2c1.788,1.732,3.661,3.432,5.4,5.255a79.137,79.137,0,0,1,14.99,23.295C1195.718,991.639,1195.16,991.677,1194.627,991.807Z" transform="translate(-57.767 -78.778)" fill="#53a0ed"/>
    <path id="Path_79" data-name="Path 79" d="M1133.73,1064.773c-.647.5-1.312.966-1.935,1.493a30.447,30.447,0,0,1-17.445,7.253,46.026,46.026,0,0,1-15.308-1.41c-11.985-3.046-22.015-9.39-30.764-17.945-1.832-1.789-3.581-3.666-5.327-5.542-.629-.676-1.141-1.464-1.706-2.2-.149-.194-.3-.39-.481-.3a5.273,5.273,0,0,1-1.323.411c-1.367.054-2.737.005-4.105.024-.523.007-.718-.175-.708-.711.028-1.456.04-2.913-.005-4.369-.021-.673.224-.89.858-.823.369.039.746.007,1.3.007a8.967,8.967,0,0,0-.427-.942,65.238,65.238,0,0,1-9.193-24.31,32.741,32.741,0,0,1-.077-11.04c.063-.334.178-.657.311-1.141.468.411.83.723,1.187,1.041a59.279,59.279,0,0,1,9.06,9.308,8.2,8.2,0,0,1,.7,1.583c-.073.094-.147.187-.219.281l-4.492-.689c.226,1.311,1.636,1.59,2.239,2.69-1.014-.318-1.921-.615-2.838-.881a2.263,2.263,0,0,0-.652,0,2.315,2.315,0,0,0,.049.727,2.783,2.783,0,0,0,.526.79,317.587,317.587,0,0,0,24.82,24.577,124.844,124.844,0,0,0,29.091,19.588,39.263,39.263,0,0,0,19.876,4c1.985-.148,3.918-1.024,5.872-1.575a6.542,6.542,0,0,0,.711-.288Z" transform="translate(0 -112.621)" fill="#53a0ed"/>
    <path id="Path_80" data-name="Path 80" d="M1129.712,882.859a3.762,3.762,0,0,1-2.15,2.49,19.009,19.009,0,0,1-6.816,2.024,63.678,63.678,0,0,1-14.64.056c-5.388-.479-10.769-1.052-16.145-1.646-4.306-.477-8.595-1.122-12.906-1.554-4.25-.425-8.518-.676-12.779-1.007-.114-.009-.227-.028-.486-.061a28.457,28.457,0,0,1,4.135-6.559c3.448-4.086,7.917-6.566,12.886-8.331,4.675-1.662,9.483-1.7,14.313-1.333,12.117.926,22.473,6.159,32.029,13.287.771.573,1.548,1.143,2.27,1.774A1.079,1.079,0,0,1,1129.712,882.859Z" transform="translate(-14.145 0)" fill="#53a0ed"/>
    <path id="Path_81" data-name="Path 81" d="M2008.379,1225.7c-1.779.245-1.8.243-1.84,1.984-.014.617-.238.806-.83.793q-2.314-.042-4.629,0a1.006,1.006,0,0,1-1.071-.638,5.748,5.748,0,0,0-4.957-3.209,13.087,13.087,0,0,0-5.66.794c-2.12.788-4.155,1.8-6.262,2.627-.512.2-1.431.271-1.688-.019-.339-.381-.5-.7-1.047-.54-.465.142-1.187.175-1.33.477-.271.568-.642.49-1.054.495-.7.011-1.4-.04-2.1.016-.75.06-1.028-.18-1.008-.972.052-1.978.019-3.959.014-5.939,0-.306-.033-.612-.058-1.043l-2.723.514c0,2.508-.007,4.948,0,7.388.007,1.246.252,1.666,1.456,1.865a12.922,12.922,0,0,0,6.536-.25,2.212,2.212,0,0,1,1.007.018,11.7,11.7,0,0,0,1.588.308q12.754.065,25.506.084h1.068v-4.9C2008.891,1225.624,2008.636,1225.666,2008.379,1225.7Zm-21,2.522c2.508-1.112,5.054-2.1,7.861-1.657a2.2,2.2,0,0,1,1.952,1.657Z" transform="translate(-763.744 -291.952)" fill="#53a0ed"/>
    <path id="Path_82" data-name="Path 82" d="M1600.775,1220.34v9.93h-22.244c-.166.821-.248,1.487-.439,2.12a2.942,2.942,0,0,1-3.12,2.26c-1.085,0-1.491-.861-2.293-1.585.523-.075.872-.129,1.222-.173,1.2-.145,1.494-.477,1.5-1.66.016-1.629.047-3.26.054-4.89,0-.5.124-.8.72-.841a19.662,19.662,0,0,0,2.047-.348c.081.849.112,1.625.254,2.382.044.241.376.614.578.615,3.551.02,7.1-.009,10.654-.031.047,0,.094-.051.323-.187-2.592-1.948-5.551-1.866-8.438-1.964,1.292-2.078,3.214-1.729,5.121-1.389a16.488,16.488,0,0,1,6.561,2.714c1.416.989,2.854.914,4.661.841,0-2.221.018-4.343-.012-6.465-.007-.566.145-.841.741-.91C1599.353,1220.677,1600.022,1220.494,1600.775,1220.34Z" transform="translate(-434.098 -291.795)" fill="#53a0ed"/>
    <path id="Path_83" data-name="Path 83" d="M1905.587,1227.1a10,10,0,0,0,1-.619c.226-.18.561-.426.566-.652.045-1.828.026-3.656.026-5.6l-2.733.556c-.068,1.321-.149,2.6-.2,3.871a1.553,1.553,0,0,1-1.753,1.711,1.61,1.61,0,0,1-1.863-1.769c-.026-1.419-.005-2.838-.005-4.364-1.047.213-1.916.392-2.847.58,0,1.218.08,2.384-.021,3.534-.112,1.255.123,2.216,1.446,2.639.037.012.054.089.145.25-1.318.489-2.027,1.354-1.452,2.871h9.2a4.556,4.556,0,0,0-.054-1.837C1906.8,1227.783,1906.129,1227.509,1905.587,1227.1Zm-1.524,1.644c-.919,0-1.788.037-2.651-.01-.741-.04-.468-.542-.411-.841h3.062Z" transform="translate(-702.314 -291.704)" fill="#53a0ed"/>
    <path id="Path_84" data-name="Path 84" d="M1457.814,1248.6v4.859c-.771,0-1.52,0-2.268,0-1.716.009-3.434.051-5.15.019-.617-.012-.918.2-1.015.786-.051.315-.168.615-.247.925a3.054,3.054,0,0,1-3.584,2.5.893.893,0,0,1-.523-.234c-.4-.411-.763-.856-1.157-1.309.7-.168,1.342-.3,1.966-.474a.978.978,0,0,0,.739-1.113c-.03-1.571.065-3.146-.005-4.714-.04-.87.285-1.223,1.091-1.3.545-.049,1.087-.133,1.709-.21.094,1,.18,1.889.271,2.835,1.708,0,3.357.018,5.005-.026.152,0,.4-.372.428-.594.225-1.77.211-1.772,2-1.915C1457.3,1248.63,1457.532,1248.621,1457.814,1248.6Z" transform="translate(-327.8 -314.91)" fill="#53a0ed"/>
    <path id="Path_85" data-name="Path 85" d="M1801.264,1253.323c-.007.176-.458.474-.706.479-1.777.033-3.553,0-5.33,0-2.621-.007-5.247-.08-7.863.017a2.113,2.113,0,0,1-2.335-2.363,9.426,9.426,0,0,0,.005-1.05c.909-.2,1.723-.378,2.616-.572.123.648.232,1.235.362,1.922h10.355c.136-.809.016-1.81.447-2.2.524-.472,1.514-.426,2.482-.645C1801.3,1250.445,1801.322,1251.886,1801.264,1253.323Z" transform="translate(-609.323 -315.372)" fill="#53a0ed"/>
    <rect id="Rectangle_161" data-name="Rectangle 161" width="5.717" height="5.729" transform="translate(1054.718 940.478)" fill="#53a0ed"/>
    <path id="Path_86" data-name="Path 86" d="M1544.9,1229.254c.01.753-.262.982-.965.939-.661-.04-1.326-.009-1.977-.009v-9.5l2.861-.58c.028.323.061.547.063.771C1544.887,1223.665,1544.861,1226.462,1544.9,1229.254Z" transform="translate(-408.747 -291.597)" fill="#53a0ed"/>
    <path id="Path_87" data-name="Path 87" d="M2158.049,1322.292v1.837c-.788,0-1.529.024-2.267-.021-.145-.009-.351-.278-.39-.458a6.243,6.243,0,0,1-.054-1.041c-.052-1.458-.428-1.75-1.882-1.414-.171.038-.332.252-.437.421-.066.107-.021.283-.026.428-.073,2.3-.236,2.419-2.726,1.928,0-.664-.025-1.356.007-2.045.028-.57-.206-.8-.764-.764a5.118,5.118,0,0,1-.785,0c-.594-.052-.881.185-.808.8a.42.42,0,0,1,0,.086c-.1,2.344-.127,2.363-2.687,1.989,0-.865-.045-1.758.033-2.641.018-.2.454-.509.711-.523,1.391-.079,2.788-.1,4.182-.1,1.977-.009,3.951.01,5.929.016.174,0,.349-.009.524,0C2157.96,1320.839,2158.049,1320.932,2158.049,1322.292Z" transform="translate(-906.574 -374.671)" fill="#53a0ed"/>
    <path id="Path_88" data-name="Path 88" d="M2206.043,1220.33v9.9h-2.683v-9.347Z" transform="translate(-954.557 -291.787)" fill="#53a0ed"/>
    <path id="Path_89" data-name="Path 89" d="M1753.618,1220.33v9.862c-2.718.215-2.718.215-2.718-2.267v-7.067Z" transform="translate(-581.172 -291.787)" fill="#53a0ed"/>
    <path id="Path_90" data-name="Path 90" d="M2092.818,1320.509c-.872-.035-1.746-.009-2.618-.009v-.136c-.814,0-1.63-.026-2.445.007-1.615.063-1.715.182-1.68,1.769a4.935,4.935,0,0,1,.012.7c-.075.648.26.89.848.916,1.678.075,3.356.215,5.033.211,1.709,0,1.919-.278,1.919-1.945a1.8,1.8,0,0,1,0-.348C2094.068,1320.786,2093.528,1320.537,2092.818,1320.509ZM2091,1322.1c-.028,1.391-.325,1.629-1.711,1.3-.183-.044-.316-.32-.461-.5-.03-.035-.007-.112-.01-.171-.131-1.976.08-2.16,2.183-1.793C2091,1321.351,2091.008,1321.725,2091,1322.1Z" transform="translate(-857.766 -374.33)" fill="#53a0ed"/>
    <path id="Path_91" data-name="Path 91" d="M1448.914,1322.214c.037-.654-.259-.928-.828-.935-2.062-.021-4.124-.035-6.183.014-.281.007-.767.358-.792.591a25.07,25.07,0,0,0-.038,2.665c.83,0,1.527.045,2.213-.026.218-.023.417-.344.6-.55s.323-.622.529-.657a10.435,10.435,0,0,1,1.7-.031c.028.481.049.849.072,1.23H1449A22.974,22.974,0,0,1,1448.914,1322.214Zm-4.878.505c-.262-1.033-.19-1.14.8-1.148.32,0,.64.007.96.021a1.559,1.559,0,0,1,.292.087C1446.214,1322.751,1445.966,1322.621,1444.036,1322.719Z" transform="translate(-325.478 -375.078)" fill="#53a0ed"/>
    <path id="Path_92" data-name="Path 92" d="M1663.506,1322.933l.037-.21,1.7-.271c-.078-1.506-.08-1.519-1.447-1.538-1.568-.023-3.135-.031-4.7-.037-1.7-.005-1.7,0-1.685,1.723.01,1.68.01,1.667,1.723,1.646.519-.005.923-.065.968-.7.033-.481.339-.584.734-.428a16.33,16.33,0,0,0,1.839.764c.977.248,1.985.37,2.981.547.028-.108.054-.215.081-.323Zm-1.542-.657a6.327,6.327,0,0,1-1.7.025.919.919,0,0,1-.1-.62.662.662,0,0,1,.451-.4c.537-.049,1.082-.017,1.94-.017C1662.27,1321.776,1662.16,1322.236,1661.964,1322.276Z" transform="translate(-504.014 -374.762)" fill="#53a0ed"/>
    <path id="Path_93" data-name="Path 93" d="M1553.286,1324.3c-1.713,0-3.426-.084-5.138-.14-.7-.025-1.062-.271-1.034-1.11.072-2.2.024-2.2,2.261-2.188q2.268.016,4.535.058a2.13,2.13,0,0,1,.759.14.539.539,0,0,1,.217.406c.007.072-.177.218-.288.234a15.94,15.94,0,0,1-1.73.18c-.171.005-.348-.192-.526-.292a1.922,1.922,0,0,0-.629-.33c-1.6-.168-2.27.741-1.674,2.27a.708.708,0,0,0,.516.316,2.875,2.875,0,0,0,1.038-.061c.222-.059.4-.29.593-.446a6.072,6.072,0,0,0-.627-.39,1.283,1.283,0,0,0-.416-.049c-.012-.1-.024-.19-.037-.285q1.929-.246,3.855-.489a1.37,1.37,0,0,1,.114.318C1555.117,1324.257,1555.11,1324.3,1553.286,1324.3Z" transform="translate(-412.998 -374.747)" fill="#53a0ed"/>
    <path id="Path_94" data-name="Path 94" d="M2035.1,1323.724c-.2.239-.4.678-.608.685-2.141.063-4.285.063-6.43.063-.526,0-.769-.3-.758-.839a5.919,5.919,0,0,0-.093-1.216c-.152-.807.248-1.159.973-1.169q3.01-.039,6.019,0c.222,0,.44.253.661.39a2.465,2.465,0,0,1-.659.369,5.969,5.969,0,0,1-1.3.11c-.185,0-.369-.161-.552-.25-.219-.107-.435-.3-.652-.3-.51,0-1.405-.023-1.463.166a7.06,7.06,0,0,0-.109,2.145c0,.1.3.3.442.285.648-.061,1.264.145,1.947-.365.561-.421,1.54-.283,2.335-.393Z" transform="translate(-809.165 -375.051)" fill="#53a0ed"/>
    <path id="Path_95" data-name="Path 95" d="M1884.563,1324.466c.264.009.528.044.793.067-.01.089-.019.176-.028.266H1878.7v-3.258h6.536q.005.107.01.215h-1.879c-.435,0-.872.009-1.309,0-.421-.009-.753.049-.73.6.024.625.468.488.82.458,1.063-.091,2.124-.208,3.186-.316.028.079.058.157.086.238a1.521,1.521,0,0,1-.465.253c-.919.135-1.849.2-2.76.379-.288.056-.528.376-.788.573.268.154.523.411.8.439C1882.989,1324.457,1883.779,1324.438,1884.563,1324.466Z" transform="translate(-686.636 -375.309)" fill="#53a0ed"/>
    <path id="Path_96" data-name="Path 96" d="M1609.072,1323.409a.934.934,0,0,0,.7.493c1.063.054,2.13.023,3.2.023,0,.1.007.21.009.314-2.076,0-4.154.012-6.232-.021-.159,0-.435-.3-.449-.484a18.888,18.888,0,0,1-.035-2.351c.009-.175.278-.48.432-.482,2.033-.023,4.067,0,6.1.012.059,0,.117.1.318.274l-3.955.238v.879l3.8-.332.068.236a2.2,2.2,0,0,1-.516.218c-.919.131-1.839.26-2.763.346C1609.308,1322.813,1608.925,1322.911,1609.072,1323.409Z" transform="translate(-461.792 -374.773)" fill="#53a0ed"/>
    <path id="Path_97" data-name="Path 97" d="M1979.41,1323.939l3.81.177-.01.342c-2.061,0-4.119.01-6.18-.021-.152,0-.409-.3-.43-.486-.082-.751-.082-1.511-.136-2.267-.031-.453.149-.619.6-.615,2.034.014,4.069.007,6.1.007,0,.094.009.189.012.283-.421,0-.841,0-1.262,0-.582,0-1.167.042-1.746,0-.8-.054-1.076.252-.8,1.117l3.892-.311c-1.139.961-2.992,0-3.929,1.388C1979.363,1323.682,1979.387,1323.812,1979.41,1323.939Z" transform="translate(-767.311 -374.921)" fill="#53a0ed"/>
    <path id="Path_98" data-name="Path 98" d="M1749.139,1323.78a24.634,24.634,0,0,1,3.317.22,1.481,1.481,0,0,1-.4.122c-1.83.009-3.661,0-5.491.014-.508.005-.771-.157-.723-.7a4.359,4.359,0,0,0-.018-.523c-.1-2.171-.1-2.171,2.12-2.171,1.222,0,2.443,0,3.663,0,.293,0,.587.047.879.072v.25c-.931.058-1.865.089-2.791.185-.4.04-1.1-.267-1.066.488s.685.367,1.082.343c.937-.056,1.872-.152,2.807-.233.019.115.037.233.056.348q-1.051.147-2.1.292a7.879,7.879,0,0,0-1.374.2.872.872,0,0,0-.474.614C1748.6,1323.45,1748.947,1323.771,1749.139,1323.78Z" transform="translate(-576.953 -374.653)" fill="#53a0ed"/>
    <path id="Path_99" data-name="Path 99" d="M1506.89,1324.247a4.749,4.749,0,0,1-.715.108c-1.713.009-3.427-.014-5.14.014-.6.01-.826-.189-.792-.8.045-.809.01-1.624.01-2.618.778,0,1.52-.039,2.251.03.159.016.367.393.407.629a10.538,10.538,0,0,1,.1,1.563c.007.516.257.717.755.711,1.031-.012,2.062,0,3.092,0C1506.869,1324,1506.879,1324.125,1506.89,1324.247Z" transform="translate(-374.318 -374.812)" fill="#53a0ed"/>
    <path id="Path_100" data-name="Path 100" d="M1829.281,1321.767c-.607,0-1.213.026-1.818-.007s-.851.234-.846.813c.007.718,0,1.437,0,2.23h-2.809c0-.7-.01-1.41,0-2.123.012-.647-.231-.961-.93-.9-.617.051-1.242.01-1.865.01,0-.089,0-.178,0-.266h8.245C1829.272,1321.6,1829.276,1321.684,1829.281,1321.767Z" transform="translate(-639.037 -375.292)" fill="#53a0ed"/>
    <path id="Path_101" data-name="Path 101" d="M1936.443,1323.88l-.026.231h-6.412c0-1-.028-1.931.024-2.854a.767.767,0,0,1,.514-.505,9.233,9.233,0,0,1,1.3-.032c.481-.019.692.212.7.673.01.554.047,1.106.037,1.657-.009.517.2.734.729.722.814-.016,1.629.007,2.443.024C1935.985,1323.8,1936.214,1323.851,1936.443,1323.88Z" transform="translate(-728.969 -374.625)" fill="#53a0ed"/>
    <path id="Path_102" data-name="Path 102" d="M1487.394,1231.626a1.389,1.389,0,0,1-1.559.954c-1.382-.059-2.767-.017-4.151-.017-.042-.1-.082-.192-.124-.288.486-.3.97-.6,1.63-1.008.519-1.54,2.064-1.793,3.492-.288l-1.246.283c0,.056,0,.114-.005.169Z" transform="translate(-358.903 -299.743)" fill="#53a0ed"/>
    <path id="Path_103" data-name="Path 103" d="M1718.375,1322.572c-.045,1.874.115,1.542-1.672,1.62-.8.035-1.122-.218-1.054-1.022a13.182,13.182,0,0,0,.009-1.655c-.026-.61.253-.809.837-.8C1718.583,1320.765,1718.328,1320.45,1718.375,1322.572Z" transform="translate(-552.074 -374.63)" fill="#53a0ed"/>
    <path id="Path_104" data-name="Path 104" d="M2198.33,1283.245c-.325.222-.643.622-.979.638-1.549.068-3.1.03-4.654.03-.039-.084-.079-.166-.117-.25.542-.36,1.437-.629,1.557-1.1.28-1.1,1.062-.788,1.7-.9a1.529,1.529,0,0,1,1.777.781l-1.059.194c-.005.063-.012.126-.017.19.566.073,1.13.149,1.7.224Z" transform="translate(-945.661 -342.367)" fill="#53a0ed"/>
    <rect id="Rectangle_162" data-name="Rectangle 162" width="3.053" height="1.575" transform="translate(1237.838 930.665)" fill="#53a0ed"/>
    <rect id="Rectangle_163" data-name="Rectangle 163" width="3.016" height="1.562" transform="translate(1241.832 930.694)" fill="#53a0ed"/>
    <rect id="Rectangle_164" data-name="Rectangle 164" width="3.03" height="1.578" transform="translate(1141.178 930.836)" fill="#53a0ed"/>
    <rect id="Rectangle_165" data-name="Rectangle 165" width="2.815" height="1.601" transform="translate(1180.65 932.051)" fill="#53a0ed"/>
    <path id="Path_105" data-name="Path 105" d="M1838.681,1240.47v1.573h-2.931c.035-.608.061-1.063.091-1.573Z" transform="translate(-651.193 -308.407)" fill="#53a0ed"/>
    <path id="Path_106" data-name="Path 106" d="M1643.451,1283.948v1.379h-2.94c-.122-1.492-.094-1.526,1.265-1.513.463,0,.927.024,1.39.045A1.449,1.449,0,0,1,1643.451,1283.948Z" transform="translate(-490.037 -344.174)" fill="#53a0ed"/>
    <path id="Path_107" data-name="Path 107" d="M1919.206,1264.056v.852c-.919,0-1.787.036-2.651-.011-.74-.041-.468-.541-.41-.841Z" transform="translate(-717.457 -327.871)" fill="#53a0ed"/>
    <path id="Path_108" data-name="Path 108" d="M1459.55,1323.149c.124,1.072-.126.942-2.055,1.04-.263-1.033-.19-1.139.8-1.148.32,0,.64.007.96.021A1.4,1.4,0,0,1,1459.55,1323.149Z" transform="translate(-338.936 -376.547)" fill="#53a0ed"/>
  </g>
</svg>
