<svg xmlns="http://www.w3.org/2000/svg" width="171.612" height="78.546" viewBox="0 0 171.612 78.546">
  <g id="Group_300" data-name="Group 300" transform="translate(-1046.649 -866.749)">
    <path id="Path_78" data-name="Path 78" d="M1181.6,986.864a45.968,45.968,0,0,0-12.045,4.576,77.962,77.962,0,0,0-6.551,4.446c-1.891,1.355-3.683,2.849-5.577,4.2a11.886,11.886,0,0,1-5.956,2.1c-3.481.313-6.608-.92-9.569-2.449a117.039,117.039,0,0,1-18.9-12.743c-2.144-1.7-4.276-3.421-6.352-5.248.456.22.908.443,1.364.658,2.428,1.152,4.848,2.32,7.291,3.437a10.6,10.6,0,0,0,1.783.476l.221-.226a12.378,12.378,0,0,0-.547-1.451,10.7,10.7,0,0,0-1.034-1.664,3.62,3.62,0,0,1,.981-5.251,16.835,16.835,0,0,1,6.094-2.233c4.829-1,9.691-1.849,14.532-2.8a39.574,39.574,0,0,0,12-4,11.7,11.7,0,0,0,5.519-6.13.7.7,0,0,1,.112-.185,1.647,1.647,0,0,1,.239-.165c1.489,1.443,3.05,2.859,4.5,4.378a65.92,65.92,0,0,1,12.486,19.4C1182.513,986.724,1182.048,986.756,1181.6,986.864Z" transform="translate(-59.81 -81.564)" fill="#fff"/>
    <path id="Path_79" data-name="Path 79" d="M1119.187,1054.493c-.539.413-1.093.805-1.612,1.243a25.362,25.362,0,0,1-14.531,6.041,38.339,38.339,0,0,1-12.751-1.175c-9.984-2.538-18.338-7.822-25.626-14.948-1.526-1.491-2.983-3.054-4.437-4.616-.524-.563-.951-1.22-1.421-1.836-.124-.162-.246-.325-.4-.252a4.39,4.39,0,0,1-1.1.342c-1.138.045-2.28,0-3.42.02-.435.006-.6-.146-.59-.593.023-1.213.033-2.427,0-3.639-.017-.561.187-.741.715-.686.307.032.622.006,1.083.006a7.461,7.461,0,0,0-.355-.785,54.341,54.341,0,0,1-7.657-20.25,27.274,27.274,0,0,1-.064-9.2c.052-.278.149-.547.259-.951.39.342.691.6.989.868a49.379,49.379,0,0,1,7.547,7.754,6.829,6.829,0,0,1,.585,1.319c-.061.079-.122.156-.182.234l-3.741-.574c.188,1.092,1.363,1.325,1.865,2.24-.844-.265-1.6-.512-2.364-.734a1.886,1.886,0,0,0-.543,0,1.929,1.929,0,0,0,.041.606,2.317,2.317,0,0,0,.438.658,264.544,264.544,0,0,0,20.675,20.473,103.992,103.992,0,0,0,24.233,16.316,32.7,32.7,0,0,0,16.557,3.328,25.953,25.953,0,0,0,4.892-1.312,5.442,5.442,0,0,0,.592-.24Z" transform="translate(0 -116.604)" fill="#fff"/>
    <path id="Path_80" data-name="Path 80" d="M1118.7,880.169a3.134,3.134,0,0,1-1.791,2.074,15.835,15.835,0,0,1-5.677,1.686,53.049,53.049,0,0,1-12.2.047c-4.488-.4-8.97-.876-13.449-1.371-3.587-.4-7.159-.935-10.751-1.294-3.54-.354-7.1-.563-10.645-.839-.095-.007-.189-.023-.4-.051a23.706,23.706,0,0,1,3.444-5.464,23.994,23.994,0,0,1,10.734-6.94,28.494,28.494,0,0,1,11.923-1.111c10.093.772,18.72,5.13,26.68,11.068.642.477,1.29.952,1.891,1.478A.9.9,0,0,1,1118.7,880.169Z" transform="translate(-14.645 0)" fill="#fff"/>
    <path id="Path_81" data-name="Path 81" d="M2002.326,1224.839c-1.482.2-1.5.2-1.533,1.652-.012.514-.2.671-.692.661q-1.928-.035-3.856,0a.838.838,0,0,1-.892-.531,4.787,4.787,0,0,0-4.129-2.673,10.9,10.9,0,0,0-4.715.661c-1.766.656-3.461,1.5-5.216,2.188-.427.166-1.192.225-1.406-.016-.282-.317-.421-.587-.872-.45-.387.118-.988.146-1.108.4-.226.473-.534.408-.878.412-.582.009-1.166-.033-1.745.013-.625.05-.856-.15-.84-.809.044-1.648.016-3.3.012-4.947,0-.255-.028-.51-.048-.869l-2.268.428c0,2.089-.006,4.121,0,6.154.006,1.038.21,1.387,1.213,1.553a10.764,10.764,0,0,0,5.445-.208,1.841,1.841,0,0,1,.838.015,9.739,9.739,0,0,0,1.323.256q10.624.054,21.246.07h.889v-4.078C2002.752,1224.774,2002.54,1224.808,2002.326,1224.839Zm-17.494,2.1c2.089-.926,4.21-1.746,6.548-1.38a1.832,1.832,0,0,1,1.626,1.38Z" transform="translate(-790.757 -302.278)" fill="#fff"/>
    <path id="Path_82" data-name="Path 82" d="M1596.083,1220.34v8.272h-18.529c-.138.684-.207,1.239-.365,1.766a2.45,2.45,0,0,1-2.6,1.882c-.9,0-1.242-.718-1.91-1.32.435-.063.726-.108,1.018-.144,1-.121,1.245-.4,1.253-1.383.013-1.357.039-2.715.045-4.073,0-.419.1-.667.6-.7a16.393,16.393,0,0,0,1.7-.29c.067.707.093,1.354.211,1.984.036.2.313.511.482.512,2.958.016,5.916-.007,8.875-.026.039,0,.079-.042.269-.156-2.159-1.623-4.624-1.555-7.029-1.636,1.076-1.731,2.677-1.44,4.266-1.157a13.735,13.735,0,0,1,5.465,2.261c1.179.824,2.377.761,3.883.7,0-1.85.015-3.618-.01-5.385-.006-.472.121-.7.617-.758C1594.9,1220.621,1595.456,1220.468,1596.083,1220.34Z" transform="translate(-449.452 -302.116)" fill="#fff"/>
    <path id="Path_83" data-name="Path 83" d="M1904.269,1225.95a8.321,8.321,0,0,0,.833-.515c.188-.15.467-.355.472-.543.038-1.523.022-3.046.022-4.661l-2.277.463c-.057,1.1-.124,2.162-.163,3.224a1.294,1.294,0,0,1-1.46,1.425,1.341,1.341,0,0,1-1.552-1.473c-.022-1.182,0-2.364,0-3.635l-2.372.483c0,1.015.067,1.986-.018,2.943-.093,1.045.1,1.846,1.2,2.2.031.01.045.074.121.208-1.1.408-1.689,1.128-1.21,2.392h7.663a3.8,3.8,0,0,0-.045-1.53C1905.278,1226.522,1904.721,1226.293,1904.269,1225.95Zm-1.269,1.37c-.766,0-1.489.031-2.208-.009-.617-.033-.39-.451-.342-.7H1903Z" transform="translate(-727.154 -302.022)" fill="#fff"/>
    <path id="Path_84" data-name="Path 84" d="M1455.486,1248.561v4.047c-.642,0-1.266,0-1.889,0-1.43.007-2.861.042-4.29.016-.514-.01-.764.163-.846.655-.042.262-.14.512-.205.77a2.544,2.544,0,0,1-2.986,2.086.743.743,0,0,1-.435-.195c-.332-.342-.636-.713-.964-1.09.587-.14,1.118-.246,1.638-.395a.814.814,0,0,0,.616-.927c-.025-1.309.054-2.62,0-3.926-.033-.725.237-1.019.908-1.079.454-.041.906-.111,1.424-.175.079.831.15,1.574.226,2.361,1.422,0,2.8.015,4.169-.022.127,0,.333-.31.357-.5.188-1.475.176-1.476,1.667-1.6C1455.059,1248.583,1455.25,1248.576,1455.486,1248.561Z" transform="translate(-339.394 -326.048)" fill="#fff"/>
    <path id="Path_85" data-name="Path 85" d="M1798.55,1252.586c-.006.147-.381.394-.588.4-1.48.028-2.96,0-4.44,0-2.184-.006-4.37-.067-6.549.015a1.76,1.76,0,0,1-1.945-1.968,7.838,7.838,0,0,0,0-.875l2.179-.476c.1.54.194,1.029.3,1.6h8.626c.114-.674.013-1.508.373-1.833.437-.393,1.261-.355,2.067-.537C1798.577,1250.188,1798.6,1251.389,1798.55,1252.586Z" transform="translate(-630.874 -326.527)" fill="#fff"/>
    <rect id="Rectangle_161" data-name="Rectangle 161" width="4.762" height="4.772" transform="translate(1053.371 928.164)" fill="#fff"/>
    <path id="Path_86" data-name="Path 86" d="M1544.41,1227.725c.009.628-.218.818-.8.782-.55-.034-1.1-.007-1.647-.007v-7.917l2.383-.483c.023.269.051.456.052.642C1544.4,1223.07,1544.377,1225.4,1544.41,1227.725Z" transform="translate(-423.204 -301.911)" fill="#fff"/>
    <path id="Path_87" data-name="Path 87" d="M2155.906,1322.037v1.53c-.656,0-1.274.02-1.888-.017-.121-.007-.292-.232-.325-.381a5.216,5.216,0,0,1-.045-.868c-.044-1.214-.357-1.457-1.568-1.178-.143.032-.276.21-.364.351-.055.089-.017.236-.022.357-.061,1.913-.2,2.015-2.271,1.606,0-.553-.021-1.13.006-1.7.023-.475-.172-.67-.636-.636a4.266,4.266,0,0,1-.654,0c-.495-.044-.734.154-.672.665a.368.368,0,0,1,0,.071c-.086,1.952-.106,1.968-2.239,1.657,0-.721-.038-1.464.028-2.2.014-.167.378-.424.592-.435,1.159-.065,2.322-.08,3.483-.084,1.647-.007,3.292.009,4.938.013.146,0,.291-.007.437,0C2155.832,1320.827,2155.906,1320.9,2155.906,1322.037Z" transform="translate(-938.639 -387.923)" fill="#fff"/>
    <path id="Path_88" data-name="Path 88" d="M2205.595,1220.33v8.25h-2.235v-7.786Z" transform="translate(-988.319 -302.107)" fill="#fff"/>
    <path id="Path_89" data-name="Path 89" d="M1753.164,1220.33v8.215c-2.264.179-2.264.179-2.264-1.888v-5.887Z" transform="translate(-601.727 -302.107)" fill="#fff"/>
    <path id="Path_90" data-name="Path 90" d="M2091.691,1320.483c-.726-.029-1.454-.007-2.181-.007v-.114c-.678,0-1.358-.022-2.037.006-1.345.052-1.428.151-1.4,1.473a4.091,4.091,0,0,1,.01.581c-.062.54.217.741.706.763,1.4.063,2.8.179,4.193.176,1.424,0,1.6-.231,1.6-1.62a1.49,1.49,0,0,1,0-.29C2092.732,1320.714,2092.282,1320.506,2091.691,1320.483Zm-1.514,1.325c-.023,1.159-.271,1.357-1.425,1.083-.153-.036-.264-.266-.384-.415-.025-.029-.006-.093-.009-.143-.109-1.646.067-1.8,1.818-1.494C2090.177,1321.185,2090.183,1321.5,2090.177,1321.808Z" transform="translate(-888.104 -387.57)" fill="#fff"/>
    <path id="Path_91" data-name="Path 91" d="M1447.6,1322.055c.031-.545-.215-.773-.69-.779-1.718-.017-3.436-.029-5.151.012-.234.006-.639.3-.66.492a20.885,20.885,0,0,0-.032,2.22c.691,0,1.272.038,1.843-.022.182-.019.348-.287.5-.458s.269-.518.441-.547a8.684,8.684,0,0,1,1.419-.026c.023.4.041.708.06,1.025h2.343A19.161,19.161,0,0,1,1447.6,1322.055Zm-4.063.421c-.218-.86-.159-.949.67-.956.266,0,.533.006.8.017a1.3,1.3,0,0,1,.243.073C1445.353,1322.5,1445.146,1322.394,1443.539,1322.476Z" transform="translate(-336.99 -388.344)" fill="#fff"/>
    <path id="Path_92" data-name="Path 92" d="M1662.486,1322.59l.031-.175,1.413-.226c-.065-1.255-.067-1.265-1.205-1.281-1.306-.019-2.612-.026-3.919-.031-1.412,0-1.412,0-1.4,1.435.009,1.4.009,1.389,1.435,1.371.432,0,.769-.054.807-.582.027-.4.282-.486.611-.357a13.6,13.6,0,0,0,1.532.636c.814.207,1.654.308,2.484.456.023-.09.045-.179.067-.27Zm-1.284-.547a5.269,5.269,0,0,1-1.414.021.765.765,0,0,1-.086-.517.551.551,0,0,1,.376-.329c.447-.041.9-.015,1.616-.015C1661.457,1321.626,1661.365,1322.009,1661.2,1322.042Z" transform="translate(-521.84 -388.017)" fill="#fff"/>
    <path id="Path_93" data-name="Path 93" d="M1552.254,1323.724c-1.427,0-2.853-.07-4.28-.117-.584-.02-.885-.226-.862-.924.06-1.828.02-1.834,1.884-1.823q1.889.013,3.778.048a1.776,1.776,0,0,1,.632.116.448.448,0,0,1,.18.338c.006.06-.147.182-.24.195a13.3,13.3,0,0,1-1.441.15c-.143,0-.29-.16-.438-.243a1.6,1.6,0,0,0-.524-.275c-1.331-.14-1.891.617-1.395,1.891a.59.59,0,0,0,.429.264,2.4,2.4,0,0,0,.865-.051c.185-.05.331-.242.494-.371a5.031,5.031,0,0,0-.523-.325,1.069,1.069,0,0,0-.346-.041l-.031-.237,3.211-.408a1.133,1.133,0,0,1,.095.265C1553.78,1323.689,1553.774,1323.724,1552.254,1323.724Z" transform="translate(-427.606 -388.001)" fill="#fff"/>
    <path id="Path_94" data-name="Path 94" d="M2033.775,1323.307c-.169.2-.332.565-.506.571-1.783.052-3.57.052-5.356.052-.438,0-.641-.246-.632-.7a4.934,4.934,0,0,0-.077-1.013c-.127-.672.207-.965.811-.974q2.507-.033,5.014,0c.185,0,.367.211.55.325a2.057,2.057,0,0,1-.549.307,4.975,4.975,0,0,1-1.082.092c-.154,0-.307-.134-.46-.208-.182-.089-.363-.252-.543-.252-.425,0-1.17-.019-1.219.138a5.88,5.88,0,0,0-.09,1.786c0,.087.248.249.368.237.54-.051,1.053.121,1.622-.3.467-.351,1.283-.236,1.945-.327Z" transform="translate(-837.784 -388.316)" fill="#fff"/>
    <path id="Path_95" data-name="Path 95" d="M1883.584,1323.977c.22.007.44.036.661.055-.009.074-.016.147-.023.221H1878.7v-2.714h5.445l.009.179h-1.565c-.363,0-.726.007-1.09,0s-.627.041-.609.5c.02.521.39.406.683.381.885-.076,1.769-.173,2.654-.263.023.066.048.131.071.2a1.268,1.268,0,0,1-.387.211c-.766.112-1.54.169-2.3.316-.24.047-.44.313-.657.478.223.128.435.342.668.365C1882.272,1323.97,1882.93,1323.954,1883.584,1323.977Z" transform="translate(-710.922 -388.583)" fill="#fff"/>
    <path id="Path_96" data-name="Path 96" d="M1608.6,1322.988a.778.778,0,0,0,.582.411c.885.045,1.775.019,2.663.019,0,.087.006.175.007.262-1.729,0-3.461.01-5.191-.017-.132,0-.362-.253-.374-.4a15.718,15.718,0,0,1-.029-1.958c.007-.146.231-.4.36-.4,1.693-.019,3.388,0,5.081.01.05,0,.1.081.265.229l-3.294.2v.732l3.163-.276.057.2a1.829,1.829,0,0,1-.429.182c-.766.109-1.532.217-2.3.288C1608.8,1322.492,1608.476,1322.573,1608.6,1322.988Z" transform="translate(-478.125 -388.028)" fill="#fff"/>
    <path id="Path_97" data-name="Path 97" d="M1978.917,1323.46l3.174.147c0,.095-.006.191-.009.285-1.716,0-3.431.009-5.148-.017-.127,0-.341-.253-.358-.4-.068-.626-.068-1.259-.114-1.888-.026-.377.124-.515.5-.512,1.695.012,3.389.006,5.085.006,0,.079.007.157.01.236-.351,0-.7,0-1.051,0-.485,0-.973.035-1.454,0-.664-.045-.9.21-.667.93l3.242-.259c-.949.8-2.492,0-3.273,1.156C1978.878,1323.246,1978.9,1323.354,1978.917,1323.46Z" transform="translate(-794.45 -388.181)" fill="#fff"/>
    <path id="Path_98" data-name="Path 98" d="M1748.579,1323.273a20.5,20.5,0,0,1,2.763.183,1.237,1.237,0,0,1-.336.1c-1.524.007-3.05,0-4.574.012-.423,0-.642-.131-.6-.581a3.612,3.612,0,0,0-.015-.435c-.083-1.808-.083-1.808,1.766-1.808,1.018,0,2.035,0,3.051,0,.245,0,.489.039.732.06v.208c-.776.048-1.553.074-2.325.154-.33.033-.92-.223-.888.406s.571.306.9.285c.78-.047,1.559-.127,2.338-.194.016.1.031.194.047.29l-1.751.243a6.561,6.561,0,0,0-1.144.17.726.726,0,0,0-.394.511C1748.131,1323,1748.419,1323.266,1748.579,1323.273Z" transform="translate(-597.359 -387.904)" fill="#fff"/>
    <path id="Path_99" data-name="Path 99" d="M1505.779,1323.694a3.968,3.968,0,0,1-.6.09c-1.427.007-2.855-.012-4.281.012-.5.009-.688-.157-.659-.668.038-.674.009-1.353.009-2.181.648,0,1.266-.032,1.875.025.133.013.306.328.339.524a8.783,8.783,0,0,1,.082,1.3c.006.429.214.6.629.592.859-.01,1.718,0,2.575,0C1505.761,1323.489,1505.77,1323.592,1505.779,1323.694Z" transform="translate(-387.557 -388.069)" fill="#fff"/>
    <path id="Path_100" data-name="Path 100" d="M1827.9,1321.725c-.505,0-1.01.022-1.514-.006s-.709.2-.7.677c.006.6,0,1.2,0,1.858h-2.34c0-.579-.009-1.175,0-1.769.01-.539-.192-.8-.775-.753-.514.042-1.035.009-1.553.009,0-.074,0-.148,0-.221h6.868C1827.894,1321.589,1827.9,1321.657,1827.9,1321.725Z" transform="translate(-661.639 -388.566)" fill="#fff"/>
    <path id="Path_101" data-name="Path 101" d="M1935.367,1323.35l-.022.192H1930c0-.836-.023-1.609.02-2.377a.639.639,0,0,1,.428-.421,7.68,7.68,0,0,1,1.086-.026c.4-.016.577.176.584.561.009.461.039.922.031,1.38-.007.431.17.611.607.6.679-.013,1.357.006,2.035.02C1934.985,1323.285,1935.176,1323.327,1935.367,1323.35Z" transform="translate(-754.752 -387.875)" fill="#fff"/>
    <path id="Path_102" data-name="Path 102" d="M1486.42,1231.349a1.157,1.157,0,0,1-1.3.795c-1.152-.049-2.3-.015-3.458-.015-.035-.08-.068-.16-.1-.24.4-.249.808-.5,1.358-.84.432-1.283,1.719-1.494,2.909-.24l-1.038.236,0,.141Z" transform="translate(-371.597 -310.345)" fill="#fff"/>
    <path id="Path_103" data-name="Path 103" d="M1717.918,1322.262c-.038,1.561.1,1.284-1.393,1.349-.663.029-.935-.182-.878-.852a10.937,10.937,0,0,0,.007-1.379c-.022-.508.211-.674.7-.664C1718.091,1320.757,1717.879,1320.495,1717.918,1322.262Z" transform="translate(-571.6 -387.88)" fill="#fff"/>
    <path id="Path_104" data-name="Path 104" d="M2197.37,1282.974c-.271.185-.536.518-.815.531-1.29.057-2.584.025-3.877.025-.032-.07-.065-.138-.1-.208.451-.3,1.2-.524,1.3-.914.233-.916.885-.657,1.417-.751a1.273,1.273,0,0,1,1.48.651l-.882.162c0,.052-.01.1-.014.159.472.061.942.124,1.413.187Z" transform="translate(-979.108 -354.476)" fill="#fff"/>
    <rect id="Rectangle_162" data-name="Rectangle 162" width="2.543" height="1.312" transform="translate(1205.908 919.99)" fill="#fff"/>
    <rect id="Rectangle_163" data-name="Rectangle 163" width="2.513" height="1.301" transform="translate(1209.234 920.015)" fill="#fff"/>
    <rect id="Rectangle_164" data-name="Rectangle 164" width="2.524" height="1.315" transform="translate(1125.391 920.133)" fill="#fff"/>
    <rect id="Rectangle_165" data-name="Rectangle 165" width="2.345" height="1.334" transform="translate(1158.27 921.145)" fill="#fff"/>
    <path id="Path_105" data-name="Path 105" d="M1838.191,1240.47v1.31h-2.441c.029-.507.051-.885.076-1.31Z" transform="translate(-674.225 -319.315)" fill="#fff"/>
    <path id="Path_106" data-name="Path 106" d="M1642.952,1283.925v1.149H1640.5c-.1-1.243-.079-1.271,1.054-1.261.386,0,.772.02,1.157.038A1.211,1.211,0,0,1,1642.952,1283.925Z" transform="translate(-507.369 -356.347)" fill="#fff"/>
    <path id="Path_107" data-name="Path 107" d="M1918.678,1264.056v.71c-.765,0-1.489.03-2.208-.009-.617-.034-.39-.451-.342-.7Z" transform="translate(-742.833 -339.468)" fill="#fff"/>
    <path id="Path_108" data-name="Path 108" d="M1459.185,1323.13c.1.893-.1.785-1.712.866-.219-.86-.158-.949.669-.956.267,0,.533.006.8.018A1.166,1.166,0,0,1,1459.185,1323.13Z" transform="translate(-350.924 -389.865)" fill="#fff"/>
  </g>
</svg>
